<svg xmlns="http://www.w3.org/2000/svg" viewBox="0 0 256 256">
    <defs><linearGradient id="g" x1="0" y1="0" x2="1" y2="1"><stop offset="0" stop-color="#E8F1F8"/><stop offset="1" stop-color="#d7e7f2"/></linearGradient></defs>
    <rect width="256" height="256" rx="64" fill="url(#g)"/>
    <rect x="34" y="42" width="188" height="172" rx="40" fill="#3E6C8C" opacity=".94"/>
    <ellipse cx="128" cy="214" rx="64" ry="10" fill="#cadde9" opacity=".55"/>
    <rect x="76" y="138" width="24" height="16" rx="4" fill="#ffffff"/><rect x="104" y="138" width="24" height="16" rx="4" fill="#ffffff"/><rect x="132" y="138" width="24" height="16" rx="4" fill="#ffffff"/><rect x="90" y="118" width="24" height="16" rx="4" fill="#ffffff"/><rect x="118" y="118" width="24" height="16" rx="4" fill="#ffffff"/><path d="M74 158c6 22 26 34 54 34 34 0 54-14 58-42-12 6-34 6-54 6-22 0-42 0-58 2z" fill="#ffffff" opacity=".96"/>
    </svg>