<svg xmlns="http://www.w3.org/2000/svg" viewBox="0 0 256 256">
    <defs><linearGradient id="g" x1="0" y1="0" x2="1" y2="1"><stop offset="0" stop-color="#E8F1F8"/><stop offset="1" stop-color="#d7e7f2"/></linearGradient></defs>
    <rect width="256" height="256" rx="64" fill="url(#g)"/>
    <rect x="34" y="42" width="188" height="172" rx="40" fill="#4F7FAE" opacity=".94"/>
    <ellipse cx="128" cy="214" rx="64" ry="10" fill="#cadde9" opacity=".55"/>
    <path d="M84 144c0-18 14-32 32-32h24c18 0 32 14 32 32l-8 24c-3 10-12 16-22 16-8 0-15-4-20-10l-4-5-4 5c-5 6-12 10-20 10-10 0-19-6-22-16l-8-24z" fill="#ffffff" opacity=".96"/><rect x="96" y="136" width="20" height="8" rx="4" fill="#E07B7B"/><rect x="102" y="130" width="8" height="20" rx="4" fill="#E07B7B"/><circle cx="146" cy="138" r="5" fill="#E07B7B"/><circle cx="158" cy="150" r="5" fill="#E07B7B"/>
    </svg>