<svg xmlns="http://www.w3.org/2000/svg" viewBox="0 0 900 520"><defs><linearGradient id="g" x1="0" y1="0" x2="0" y2="1"><stop offset="0" stop-color="#ffffff"/><stop offset="1" stop-color="#edf5fb"/></linearGradient></defs><rect width="900" height="520" rx="32" fill="url(#g)"/><rect x="54" y="56" width="792" height="408" rx="28" fill="#fff" stroke="#d7e4ef"/><rect x="86" y="96" width="276" height="206" rx="24" fill="#4f7fae" opacity=".98"/><rect x="114" y="128" width="142" height="22" rx="11" fill="#ffffff" opacity=".96"/><rect x="114" y="165" width="186" height="18" rx="9" fill="#cfe0ee"/><rect x="114" y="195" width="162" height="18" rx="9" fill="#cfe0ee"/><rect x="114" y="225" width="110" height="18" rx="9" fill="#cfe0ee"/><rect x="406" y="110" width="376" height="44" rx="22" fill="#eef5fb"/><rect x="406" y="174" width="164" height="110" rx="22" fill="#eaf5ee" stroke="#d2e8d8"/><rect x="596" y="174" width="186" height="110" rx="22" fill="#fff6df" stroke="#f1e2a4"/><rect x="406" y="304" width="376" height="110" rx="22" fill="#eef5fb" stroke="#d5e2ee"/><text x="406" y="78" font-family="Arial,Segoe UI" font-size="44" font-weight="700" fill="#243241">Backup</text><text x="406" y="332" font-family="Arial,Segoe UI" font-size="24" fill="#5c6b7a">Sichern, prüfen, wiederherstellen</text></svg>