<svg xmlns="http://www.w3.org/2000/svg" viewBox="0 0 860 520">
  <defs>
    <linearGradient id="bg" x1="0" y1="0" x2="1" y2="1">
      <stop offset="0" stop-color="#f8fbfe"/><stop offset="1" stop-color="#e6f0f7"/>
    </linearGradient>
    <linearGradient id="card" x1="0" y1="0" x2="0" y2="1">
      <stop offset="0" stop-color="#ffffff"/><stop offset="1" stop-color="#eef4f9"/>
    </linearGradient>
  </defs>
  <rect width="860" height="520" rx="34" fill="url(#bg)"/>
  <circle cx="734" cy="94" r="44" fill="#fff" opacity=".5"/>
  <circle cx="788" cy="154" r="18" fill="#dbe9f4" opacity=".8"/>
  <rect x="42" y="46" width="430" height="258" rx="28" fill="#ffffff" opacity=".93"/>
  <text x="74" y="104" font-family="Arial, sans-serif" font-size="22" fill="#3E6C8C">SetupHelfer</text>
  <text x="74" y="160" font-family="Arial, sans-serif" font-size="44" font-weight="700" fill="#2d4356">Linux-Grundlagen</text>
  <text x="74" y="212" font-family="Arial, sans-serif" font-size="22" fill="#5f7282">Benutzer, Rechte und Struktur ohne Umwege verstehen.</text>
  <rect x="74" y="248" width="160" height="18" rx="9" fill="#3E6C8C" opacity=".18"/>
  <rect x="248" y="248" width="124" height="18" rx="9" fill="#8CCB9B" opacity=".22"/>
  <rect x="528" y="90" width="258" height="154" rx="24" fill="url(#card)" stroke="#c8d9e6"/>
  <rect x="548" y="110" width="218" height="102" rx="18" fill="#f9fcff" stroke="#d6e4ef"/>
  <rect x="626" y="248" width="66" height="12" rx="6" fill="#8caecc"/>
  <rect x="604" y="260" width="112" height="14" rx="7" fill="#d5e2ee"/>
  <rect x="638" y="274" width="44" height="16" rx="8" fill="#bfd3e6"/>
  <rect x="430" y="232" width="188" height="134" rx="24" fill="#3E6C8C" stroke="#3d6484"/>
  <rect x="448" y="252" width="92" height="44" rx="12" fill="#8CCB9B"/>
  <circle cx="466" cy="274" r="6" fill="#fff" opacity=".95"/>
  <rect x="478" y="268" width="42" height="12" rx="6" fill="#fff" opacity=".95"/>
  <rect x="448" y="308" width="148" height="16" rx="8" fill="#c8d9e8" opacity=".92"/>
  <rect x="448" y="334" width="104" height="12" rx="6" fill="#dbe8f1" opacity=".92"/>
  <ellipse cx="146" cy="430" rx="78" ry="18" fill="#dbe8f1"/>
  <ellipse cx="326" cy="448" rx="180" ry="28" fill="#dfeaf3"/>
  <g transform="translate(86 202)">
    <ellipse cx="92" cy="120" rx="76" ry="92" fill="#1f2833"/>
    <ellipse cx="92" cy="134" rx="50" ry="69" fill="#f7f2e8"/>
    <ellipse cx="92" cy="34" rx="46" ry="44" fill="#1f2833"/>
    <ellipse cx="76" cy="32" rx="12" ry="9" fill="#f8fbfe"/>
    <ellipse cx="108" cy="32" rx="12" ry="9" fill="#f8fbfe"/>
    <ellipse cx="92" cy="50" rx="13" ry="9" fill="#efb055"/>
    <ellipse cx="52" cy="198" rx="28" ry="14" fill="#efb055"/>
    <ellipse cx="132" cy="198" rx="28" ry="14" fill="#efb055"/>
  </g>
  <path d="M252 290c18-14 40-12 54 4" fill="none" stroke="#e9c86c" stroke-width="8" stroke-linecap="round"/>
  <circle cx="314" cy="296" r="10" fill="#e9c86c"/>
  
</svg>