<svg xmlns="http://www.w3.org/2000/svg" viewBox="0 0 860 520">
  <rect width="860" height="520" rx="30" fill="#f4f7f6"/>
  <rect x="34" y="34" width="792" height="452" rx="24" fill="#f8fbfa" stroke="#d7dfdc"/>

  <rect x="64" y="68" width="352" height="214" rx="20" fill="#ffffff" stroke="#d7dfdc"/>
  <rect x="88" y="96" width="154" height="12" rx="6" fill="#2f6a68" opacity=".16"/>
  <rect x="88" y="124" width="292" height="14" rx="7" fill="#273635" opacity=".1"/>
  <rect x="88" y="148" width="248" height="14" rx="7" fill="#273635" opacity=".08"/>
  <rect x="88" y="188" width="128" height="28" rx="10" fill="#4f8b70"/>
  <rect x="226" y="188" width="122" height="28" rx="10" fill="#e8f0ee" stroke="#d2dcda"/>

  <!-- Desktop monitor -->
  <rect x="468" y="80" width="300" height="188" rx="16" fill="#ffffff" stroke="#cfdad7"/>
  <rect x="488" y="100" width="260" height="136" rx="10" fill="#eef3f2"/>
  <rect x="598" y="270" width="40" height="10" rx="5" fill="#9cb4b0"/>
  <rect x="560" y="280" width="116" height="12" rx="6" fill="#d8e2e0"/>

  <!-- Raspberry Pi board -->
  <rect x="500" y="312" width="180" height="120" rx="14" fill="#4f8b70" stroke="#3f7267"/>
  <rect x="518" y="332" width="74" height="38" rx="8" fill="#f1f7f5" stroke="#d8e3e0"/>
  <circle cx="534" cy="350" r="5" fill="#2f6a68"/>
  <rect x="546" y="345" width="32" height="10" rx="5" fill="#79b394"/>
  <rect x="518" y="384" width="144" height="12" rx="6" fill="#d1e0db"/>
  <rect x="518" y="402" width="92" height="10" rx="5" fill="#e3ece9"/>

  <!-- Tux with laptop -->
  <ellipse cx="186" cy="376" rx="62" ry="78" fill="#1f2d2c"/>
  <ellipse cx="186" cy="390" rx="40" ry="56" fill="#f4f1e8"/>
  <ellipse cx="186" cy="300" rx="36" ry="34" fill="#1f2d2c"/>
  <ellipse cx="173" cy="300" rx="8" ry="6" fill="#f6faf9"/>
  <ellipse cx="199" cy="300" rx="8" ry="6" fill="#f6faf9"/>
  <ellipse cx="186" cy="316" rx="10" ry="6" fill="#d2b467"/>
  <ellipse cx="154" cy="446" rx="20" ry="10" fill="#d2b467"/>
  <ellipse cx="218" cy="446" rx="20" ry="10" fill="#d2b467"/>
  <rect x="228" y="372" width="90" height="56" rx="8" fill="#dbe6e3" stroke="#c4d2ce"/>
  <rect x="236" y="380" width="74" height="38" rx="6" fill="#f7faf9"/>
</svg>