<svg xmlns="http://www.w3.org/2000/svg" viewBox="0 0 860 520">
  <rect width="860" height="520" rx="30" fill="#f4f7f6"/>
  <rect x="42" y="42" width="776" height="436" rx="24" fill="#ffffff" stroke="#d7dfdc"/>
  <rect x="84" y="98" width="348" height="320" rx="18" fill="#f9fbfa" stroke="#d7dfdc"/>
  <rect x="110" y="126" width="124" height="12" rx="6" fill="#2f6a68" opacity=".18"/>
  <rect x="110" y="154" width="252" height="12" rx="6" fill="#2f6a68" opacity=".11"/>
  <rect x="110" y="188" width="286" height="64" rx="10" fill="#ffffff" stroke="#d4ddda"/>
  <circle cx="140" cy="220" r="10" fill="#6cae8a"/>
  <rect x="162" y="214" width="212" height="10" rx="5" fill="#2f6a68" opacity=".2"/>
  <rect x="162" y="230" width="152" height="9" rx="4.5" fill="#2f6a68" opacity=".12"/>
  <rect x="110" y="266" width="286" height="64" rx="10" fill="#ffffff" stroke="#d4ddda"/>
  <circle cx="140" cy="298" r="10" fill="#2f6a68"/>
  <rect x="162" y="292" width="212" height="10" rx="5" fill="#2f6a68" opacity=".2"/>
  <rect x="162" y="308" width="136" height="9" rx="4.5" fill="#2f6a68" opacity=".12"/>
  <rect x="110" y="344" width="286" height="48" rx="10" fill="#e9f2ef" stroke="#d4ddda"/>
  <rect x="510" y="112" width="270" height="170" rx="16" fill="#eef4f2" stroke="#d3dcda"/>
  <rect x="530" y="132" width="230" height="130" rx="10" fill="#ffffff" stroke="#d6dfdc"/>
  <rect x="548" y="152" width="84" height="86" rx="10" fill="#dfeae7"/>
  <rect x="646" y="152" width="96" height="12" rx="6" fill="#2f6a68" opacity=".2"/>
  <rect x="646" y="174" width="82" height="10" rx="5" fill="#2f6a68" opacity=".12"/>
  <rect x="646" y="192" width="64" height="10" rx="5" fill="#2f6a68" opacity=".12"/>
  <rect x="510" y="304" width="270" height="112" rx="16" fill="#4f8b70" stroke="#3e7466"/>
  <rect x="530" y="324" width="90" height="58" rx="10" fill="#f4f8f7"/>
  <rect x="634" y="332" width="120" height="10" rx="5" fill="#d5e2de"/>
  <rect x="634" y="350" width="94" height="10" rx="5" fill="#d5e2de"/>
</svg>