<svg xmlns="http://www.w3.org/2000/svg" viewBox="0 0 512 512"><defs><linearGradient id="bg" x1="0" y1="0" x2="1" y2="1"><stop offset="0" stop-color="#edf5fb"/><stop offset="1" stop-color="#dceaf5"/></linearGradient></defs><rect width="512" height="512" rx="116" fill="url(#bg)"/><ellipse cx="170" cy="430" rx="86" ry="22" fill="#d6e4ef"/><ellipse cx="330" cy="438" rx="118" ry="26" fill="#dce8f2"/><g transform="translate(54 92)"><ellipse cx="98" cy="150" rx="76" ry="92" fill="#1f2833"/><ellipse cx="98" cy="164" rx="50" ry="69" fill="#f7f2e8"/><ellipse cx="98" cy="60" rx="46" ry="44" fill="#1f2833"/><ellipse cx="82" cy="58" rx="12" ry="9" fill="#f8fbfe"/><ellipse cx="114" cy="58" rx="12" ry="9" fill="#f8fbfe"/><ellipse cx="98" cy="74" rx="13" ry="9" fill="#efb055"/><ellipse cx="58" cy="228" rx="28" ry="14" fill="#efb055"/><ellipse cx="138" cy="228" rx="28" ry="14" fill="#efb055"/></g><rect x="218" y="180" width="150" height="108" rx="20" fill="#4f7fae" stroke="#356585"/><rect x="236" y="202" width="64" height="28" rx="9" fill="#74b48a"/><rect x="236" y="244" width="98" height="12" rx="6" fill="#d2e3f0"/><rect x="236" y="264" width="70" height="12" rx="6" fill="#d2e3f0"/><rect x="332" y="122" width="118" height="78" rx="18" fill="#ffffff" stroke="#c9d8e5"/><rect x="344" y="134" width="94" height="52" rx="12" fill="#eef5fb"/><rect x="360" y="208" width="60" height="9" rx="4.5" fill="#8caecc"/><rect x="342" y="216" width="96" height="11" rx="5.5" fill="#d2e1ee"/><rect x="376" y="228" width="30" height="12" rx="6" fill="#bfd1e2"/><path d="M195 192c16-12 36-10 49 4" fill="none" stroke="#e9c86c" stroke-width="8" stroke-linecap="round"/></svg>
