<svg xmlns="http://www.w3.org/2000/svg" viewBox="0 0 860 520">
  <rect width="860" height="520" rx="28" fill="#f4f7f6"/>
  <rect x="36" y="36" width="788" height="448" rx="22" fill="#ffffff" stroke="#d6dfdc"/>
  <rect x="120" y="88" width="470" height="260" rx="20" fill="#eef4f2" stroke="#d2ddda"/>
  <rect x="154" y="122" width="402" height="196" rx="14" fill="#ffffff" stroke="#d6dfdc"/>
  <rect x="320" y="356" width="78" height="14" rx="7" fill="#9fb5b1"/>
  <rect x="288" y="370" width="142" height="14" rx="7" fill="#d8e2df"/>
  <rect x="604" y="256" width="160" height="146" rx="16" fill="#4f8b70" stroke="#3d7365"/>
  <rect x="624" y="276" width="68" height="40" rx="8" fill="#f2f7f5"/>
  <circle cx="638" cy="296" r="5" fill="#2f6a68"/>
  <rect x="648" y="290" width="30" height="10" rx="5" fill="#79b394"/>
  <rect x="624" y="330" width="126" height="12" rx="6" fill="#d2e1dc"/>
  <rect x="624" y="348" width="94" height="10" rx="5" fill="#e3ece9"/>
  <rect x="84" y="390" width="180" height="52" rx="12" fill="#e9f1ee" stroke="#d2ddda"/>
  <rect x="102" y="406" width="82" height="8" rx="4" fill="#2f6a68" opacity=".25"/>
  <rect x="102" y="420" width="140" height="8" rx="4" fill="#2f6a68" opacity=".12"/>
</svg>
